<?xml version="1.0" encoding="iso-8859-1"?>
<!-- Generator: Adobe Illustrator 19.0.0, SVG Export Plug-In . SVG Version: 6.00 Build 0)  -->
<svg version="1.1" id="Layer_1" xmlns="http://www.w3.org/2000/svg" xmlns:xlink="http://www.w3.org/1999/xlink" x="0px" y="0px"
	 viewBox="0 0 502 502" style="enable-background:new 0 0 502 502;" xml:space="preserve">
<g>
	<g>
		<g>
			<rect x="5" y="5" style="fill:#F89029;" width="492" height="492"/>
			<path d="M497,502H5c-2.761,0-5-2.239-5-5V5c0-2.761,2.239-5,5-5h492c2.761,0,5,2.239,5,5v492C502,499.761,499.761,502,497,502z
				 M10,492h482V10H10V492z"/>
		</g>
		<g>
			<path style="fill:#FFFFFF;" d="M404.303,231.908c0-11.893-9.642-21.534-21.534-21.534l0,0h-15.192
				c-11.893,0-21.528-9.637-21.528-21.528v-1.503c0-49.931-40.48-90.409-90.415-90.409h-67.522
				c-49.935,0-90.415,40.479-90.415,90.409v127.315c0,49.931,40.48,90.409,90.415,90.409h125.777
				c49.935,0,90.415-40.479,90.415-90.409v-82.75H404.303z M191.982,175.119h72.049c9.736,0,17.628,7.89,17.628,17.627
				c0,9.736-7.892,17.628-17.628,17.628h-72.049c-9.742,0-17.634-7.892-17.634-17.628
				C174.348,183.01,182.24,175.119,191.982,175.119L191.982,175.119z M311.552,326.883h-119.57c-9.742,0-17.634-7.892-17.634-17.628
				s7.892-17.627,17.634-17.627h119.57c9.736,0,17.632,7.89,17.632,17.627C329.185,318.991,321.289,326.883,311.552,326.883
				L311.552,326.883z"/>
			<path d="M313.888,410.067H188.112c-52.612,0-95.415-42.8-95.415-95.409V187.343c0-52.609,42.803-95.41,95.415-95.41h67.522
				c52.612,0,95.415,42.801,95.415,95.41v1.503c0,9.113,7.415,16.528,16.528,16.528h15.192c14.631,0,26.534,11.903,26.534,26.534
				c0,2.761-2.239,5-5,5s-5-2.239-5-5c0-9.117-7.417-16.534-16.534-16.534h-15.192c-14.628,0-26.528-11.9-26.528-26.528v-1.503
				c0-47.095-38.317-85.41-85.415-85.41h-67.522c-47.098,0-85.415,38.314-85.415,85.41v127.315
				c0,47.095,38.317,85.409,85.415,85.409h125.776c47.098,0,85.415-38.314,85.415-85.409c0-2.761,2.239-5,5-5s5,2.239,5,5
				C409.303,367.267,366.5,410.067,313.888,410.067z M311.552,331.883h-119.57c-12.48,0-22.633-10.151-22.633-22.628
				s10.153-22.627,22.633-22.627h119.57c12.479,0,22.632,10.15,22.632,22.627C334.185,321.732,324.032,331.883,311.552,331.883z
				 M191.982,296.627c-6.966,0-12.633,5.665-12.633,12.627c0,6.963,5.667,12.628,12.633,12.628h119.57
				c6.965,0,12.632-5.665,12.632-12.628c0-6.962-5.667-12.627-12.632-12.627H191.982z M404.303,293.192c-2.761,0-5-2.239-5-5v-30
				c0-2.761,2.239-5,5-5s5,2.239,5,5v30C409.303,290.953,407.064,293.192,404.303,293.192z M264.031,215.374h-72.049
				c-12.48,0-22.633-10.151-22.633-22.628s10.153-22.627,22.633-22.627h72.049c12.477,0,22.628,10.15,22.628,22.627
				C286.659,205.223,276.508,215.374,264.031,215.374z M191.982,180.119c-6.966,0-12.633,5.665-12.633,12.627
				c0,6.963,5.667,12.628,12.633,12.628h72.049c6.963,0,12.628-5.665,12.628-12.628c0-6.962-5.665-12.627-12.628-12.627H191.982z"/>
		</g>
	</g>
	<g>
		<path d="M52,99.191c-2.761,0-5-2.239-5-5v-43c0-2.761,2.239-5,5-5s5,2.239,5,5v43C57,96.953,54.761,99.191,52,99.191z"/>
	</g>
	<g>
		<path d="M52,449.192c-2.761,0-5-2.239-5-5v-300c0-2.761,2.239-5,5-5s5,2.239,5,5v300C57,446.953,54.761,449.192,52,449.192z"/>
	</g>
</g>

</svg>
